# xmcd CD database file generated by freedbAccess_ocx
#
# Track frame offsets:
#       150
#       13692
#       30762
#       49372
#       62985
#       80520
#       93397
#       105652
#
# Disc length: 1673 seconds
#
# Revision: 0
# Processed by: cddbd v1.4PL0 Copyright (c) Steve Scherf et al.
# Submitted via: CDnGo 2.00
#
DISCID=5d068708
DTITLE=Ace Cannon - Ace Cannon Plays Gold Favorites
DYEAR=1995
DGENRE=Instrumental
TTITLE0=Dixie
TTITLE1=Catchee
TTITLE2=House of the Rising Sun
TTITLE3=Streets of Laredo
TTITLE4=Bill Bailey
TTITLE5=Blue Danube
TTITLE6=Frankie And Johnnie
TTITLE7=Danny Boy
EXTD=
EXTT0=
EXTT1=
EXTT2=
EXTT3=
EXTT4=
EXTT5=
EXTT6=
EXTT7=
PLAYORDER=
